<mxfile host="app.diagrams.net" modified="2022-06-03T19:46:03.276Z" agent="5.0 (Windows)" etag="cD4UNGu5M4fF2hUyVA8w" version="18.2.1" type="github">
  <diagram id="C5RBs43oDa-KdzZeNtuy" name="Page-1">
    <mxGraphModel dx="784" dy="1105" grid="1" gridSize="11" guides="1" tooltips="1" connect="1" arrows="1" fold="1" page="1" pageScale="1" pageWidth="827" pageHeight="1169" background="none" math="0" shadow="1">
      <root>
        <mxCell id="WIyWlLk6GJQsqaUBKTNV-0" />
        <mxCell id="WIyWlLk6GJQsqaUBKTNV-1" parent="WIyWlLk6GJQsqaUBKTNV-0" />
        <mxCell id="S22geVAku-PErsoXpBNd-16" value="&lt;ul&gt;&lt;li&gt;Bug Fixes&lt;br&gt;&lt;/li&gt;&lt;li&gt;Battle Engine&lt;/li&gt;&lt;li&gt;Item Expansion&lt;/li&gt;&lt;li&gt;Interactive Followers&lt;/li&gt;&lt;li&gt;Day/Night System&lt;/li&gt;&lt;li&gt;Wild Pokemon Drop Items&lt;br&gt;&lt;/li&gt;&lt;/ul&gt;" style="text;strokeColor=#6c8ebf;fillColor=#dae8fc;html=1;whiteSpace=wrap;verticalAlign=top;overflow=hidden;" parent="WIyWlLk6GJQsqaUBKTNV-1" vertex="1">
          <mxGeometry x="22" y="84" width="209" height="466" as="geometry" />
        </mxCell>
        <mxCell id="S22geVAku-PErsoXpBNd-17" value="&lt;div style=&quot;font-size: 16px;&quot;&gt;Features&lt;/div&gt;&lt;div style=&quot;font-size: 16px;&quot;&gt;&lt;br style=&quot;font-size: 16px;&quot;&gt;&lt;/div&gt;" style="text;strokeColor=none;fillColor=none;html=1;fontSize=16;fontStyle=1;verticalAlign=middle;align=center;" parent="WIyWlLk6GJQsqaUBKTNV-1" vertex="1">
          <mxGeometry x="22" y="44" width="100" height="40" as="geometry" />
        </mxCell>
        <mxCell id="S22geVAku-PErsoXpBNd-20" value="&lt;div style=&quot;font-size: 18px;&quot;&gt;Tweaks&lt;/div&gt;" style="text;strokeColor=none;fillColor=none;html=1;fontSize=24;fontStyle=1;verticalAlign=middle;align=center;" parent="WIyWlLk6GJQsqaUBKTNV-1" vertex="1">
          <mxGeometry x="275" y="33" width="100" height="40" as="geometry" />
        </mxCell>
        <mxCell id="S22geVAku-PErsoXpBNd-21" value="&lt;ul style=&quot;font-size: 12px;&quot;&gt;&lt;li style=&quot;font-size: 12px;&quot;&gt;Money_MAX = 9,999,999&lt;br&gt;&lt;/li&gt;&lt;li style=&quot;font-size: 12px;&quot;&gt;Poke Center SpeedUP&lt;br&gt;&lt;/li&gt;&lt;li style=&quot;font-size: 12px;&quot;&gt;Pick up multiple Items&lt;br&gt;&lt;/li&gt;&lt;/ul&gt;" style="text;strokeColor=#6c8ebf;fillColor=#dae8fc;html=1;whiteSpace=wrap;verticalAlign=top;overflow=hidden;fontSize=12;labelPosition=center;verticalLabelPosition=middle;align=left;" parent="WIyWlLk6GJQsqaUBKTNV-1" vertex="1">
          <mxGeometry x="264" y="86" width="220" height="462" as="geometry" />
        </mxCell>
        <mxCell id="CeaQMR1ypAJuxj5ldc4A-1" value="&lt;ul&gt;&lt;li&gt;XAMAN Debug Menu&lt;/li&gt;&lt;li&gt;Triple Layer Meta-Tiles&lt;/li&gt;&lt;li&gt;Poryscripting&lt;/li&gt;&lt;/ul&gt;" style="text;strokeColor=#6c8ebf;fillColor=#dae8fc;html=1;whiteSpace=wrap;verticalAlign=top;overflow=hidden;" vertex="1" parent="WIyWlLk6GJQsqaUBKTNV-1">
          <mxGeometry x="539" y="84" width="209" height="466" as="geometry" />
        </mxCell>
        <mxCell id="CeaQMR1ypAJuxj5ldc4A-2" value="Dev Changes" style="text;strokeColor=none;fillColor=none;html=1;fontSize=18;fontStyle=1;verticalAlign=middle;align=center;" vertex="1" parent="WIyWlLk6GJQsqaUBKTNV-1">
          <mxGeometry x="539" y="33" width="100" height="40" as="geometry" />
        </mxCell>
      </root>
    </mxGraphModel>
  </diagram>
</mxfile>
